<svg xmlns="http://www.w3.org/2000/svg" viewBox="0 0 24 24" id="inkscape">
  <path d="M20.718 20.706c.258-.176-.021-1.021-1.134-1.241-.986.915.17 1.872 1.134 1.241zm-15.595.218c.791.697 1.992-.152 2.377-1.131-.24-.321-.686-.433-1.143-.404h-.002v-.001c-1.008.059-2.088.803-1.232 1.536z"></path>
  <path d="M23.076 10.327 13.929.817A2.977 2.977 0 0 0 11.871 0a2.748 2.748 0 0 0-1.993.817l-8.825 9.184c-3.343 3.394 2.164 3.11 4.154 4.395.922.612-2.955 1.393-2.164 2.199.771.806 4.65 1.545 5.422 2.33.771.804-1.564 1.653-.793 2.457.75.806 2.549.044 2.87 1.872.235 1.349 3.3.677 4.672-.479.854-.741-1.479-.741-.708-1.545 1.929-1.98 3.642-.889 4.349-2.719.387-.979-2.913-1.677-2.034-2.308 2.101-1.502 9.812-2.264 6.255-5.876zm-6.065-4.049-1.734-1.435-.343 2.11-1.435-.784-2.336 1.502-.771-3.155L9.15 7.257l-3.107-.022c-.6 0-.514-.631.107-1.262 1.221-1.372 3.6-3.699 4.35-4.504a1.961 1.961 0 0 1 1.445-.593l.001-.002c.529.003 1.06.204 1.444.593l3.492 3.614c.323.326.323 1.002.129 1.197zM23.313 18.4c-.141-.697-.87-1.018-1.611-.991v.002h-.001c-.74.025-1.496.401-1.689 1.097 0 .457 3.492.719 3.301-.108z"></path>
</svg>
